<svg width="19" height="17" viewBox="0 0 19 17" fill="none" xmlns="http://www.w3.org/2000/svg">
<path d="M7.1348 12.7382C6.99121 12.6817 6.92181 12.5185 6.9808 12.376L7.72232 10.5843C7.77983 10.4454 7.93805 10.3781 8.07802 10.4331C8.22162 10.4895 8.29102 10.6527 8.23202 10.7953L7.49051 12.5869C7.433 12.7259 7.27478 12.7931 7.1348 12.7382Z" fill="black"/>
<path d="M11.8844 5.65489C11.8844 4.04108 13.2271 2.73283 14.8835 2.73283C16.54 2.73283 17.8827 4.04108 17.8827 5.65489C17.8827 7.26869 16.54 8.57694 14.8835 8.57694C13.2271 8.57694 11.8844 7.26869 11.8844 5.65489Z" fill="black"/>
<path d="M14.8835 8.04873C14.8835 9.3708 13.7783 10.4426 12.415 10.4426C11.0516 10.4426 9.94641 9.3708 9.94641 8.04873C9.94641 6.72665 11.0516 5.65489 12.415 5.65489C13.7783 5.65489 14.8835 6.72665 14.8835 8.04873Z" fill="#E37156"/>
<path d="M6.49992 5.13933C6.01839 5.84855 6.64458 7.07864 7.89856 7.88681C9.15255 8.69497 10.5595 8.77517 11.041 8.06595C11.5225 7.35672 10.8963 6.12664 9.64234 5.31848C8.38836 4.51031 6.98145 4.43011 6.49992 5.13933Z" fill="black" stroke="#E37156" stroke-miterlimit="10"/>
<path d="M8.67131 12.7924C8.52771 12.736 8.45831 12.5728 8.51731 12.4302L9.25882 10.6386C9.31633 10.4996 9.47455 10.4323 9.61453 10.4873C9.75813 10.5437 9.82753 10.707 9.76853 10.8495L9.02702 12.6412C8.96951 12.7801 8.81128 12.8474 8.67131 12.7924Z" fill="black"/>
<g filter="url(#filter0_f_307_6)">
<path d="M4 8.99763C4 7.18396 6.34987 5.71369 9.24859 5.71369C12.1473 5.71369 14.4972 7.18396 14.4972 8.99763C14.4972 10.8113 12.1473 12.2816 9.24859 12.2816C6.34987 12.2816 4 10.8113 4 8.99763Z" fill="url(#paint0_radial_307_6)"/>
</g>
<path d="M5.0256 8.99763C5.0256 7.53836 6.91631 6.35539 9.2486 6.35539C11.5809 6.35539 13.4716 7.53836 13.4716 8.99763C13.4716 10.4569 11.5809 11.6399 9.2486 11.6399C6.91631 11.6399 5.0256 10.4569 5.0256 8.99763Z" fill="#FFE766"/>
<path d="M14.5 8.55612C14.5 9.76495 13.4599 10.8775 12.1818 10.8775C10.9037 10.8775 10.9077 6.36734 12.1858 6.36734C13.4639 6.36734 14.5 7.34729 14.5 8.55612Z" fill="black"/>
<path d="M11.151 12.8467C11.0111 12.9017 10.8528 12.8344 10.7953 12.6954L10.0538 10.9038C9.99481 10.7612 10.0642 10.598 10.2078 10.5416C10.3478 10.4866 10.506 10.5539 10.5635 10.6928L11.305 12.4845C11.364 12.627 11.2946 12.7903 11.151 12.8467Z" fill="black"/>
<g filter="url(#filter1_d_307_6)">
<path d="M8.93274 4.89207C8.45121 5.6013 9.07741 6.83138 10.3314 7.63955C11.5854 8.44771 12.9923 8.52792 13.4738 7.81869C13.9553 7.10947 13.3292 5.87938 12.0752 5.07122C10.8212 4.26305 9.41427 4.18285 8.93274 4.89207Z" fill="black"/>
<path d="M8.93274 4.89207C8.45121 5.6013 9.07741 6.83138 10.3314 7.63955C11.5854 8.44771 12.9923 8.52792 13.4738 7.81869C13.9553 7.10947 13.3292 5.87938 12.0752 5.07122C10.8212 4.26305 9.41427 4.18285 8.93274 4.89207Z" stroke="#E37156" stroke-miterlimit="10"/>
</g>
<path d="M16.3672 5.43918L18.1824 1.56436L18.7242 1.92986L16.9089 5.80468L16.3672 5.43918Z" fill="black"/>
<path d="M14.3286 4.39501L16.1439 0.520185L16.6857 0.885685L14.8704 4.76051L14.3286 4.39501Z" fill="black"/>
<path d="M12.6875 12.901C12.5476 12.9559 12.3893 12.8887 12.3318 12.7497L11.5903 10.9581C11.5313 10.8155 11.6007 10.6523 11.7443 10.5959C11.8843 10.5409 12.0425 10.6082 12.1 10.7471L12.8415 12.5388C12.9005 12.6813 12.8311 12.8445 12.6875 12.901Z" fill="black"/>
<path d="M16.0515 0.520189C16.0515 0.232897 16.2905 0 16.5854 0C16.8803 0 17.1193 0.232897 17.1193 0.520189C17.1193 0.807482 16.8803 1.04038 16.5854 1.04038C16.2905 1.04038 16.0515 0.807482 16.0515 0.520189Z" fill="black"/>
<path d="M17.9322 1.56436C17.9322 1.27706 18.1712 1.04417 18.4661 1.04417C18.761 1.04417 19 1.27706 19 1.56436C19 1.85165 18.761 2.08455 18.4661 2.08455C18.1712 2.08455 17.9322 1.85165 17.9322 1.56436Z" fill="black"/>
<defs>
<filter id="filter0_f_307_6" x="0" y="1.71369" width="18.4972" height="14.5679" filterUnits="userSpaceOnUse" color-interpolation-filters="sRGB">
<feFlood flood-opacity="0" result="BackgroundImageFix"/>
<feBlend mode="normal" in="SourceGraphic" in2="BackgroundImageFix" result="shape"/>
<feGaussianBlur stdDeviation="2" result="effect1_foregroundBlur_307_6"/>
</filter>
<filter id="filter1_d_307_6" x="4.2702" y="3.9086" width="13.8662" height="12.8936" filterUnits="userSpaceOnUse" color-interpolation-filters="sRGB">
<feFlood flood-opacity="0" result="BackgroundImageFix"/>
<feColorMatrix in="SourceAlpha" type="matrix" values="0 0 0 0 0 0 0 0 0 0 0 0 0 0 0 0 0 0 127 0" result="hardAlpha"/>
<feOffset dy="4"/>
<feGaussianBlur stdDeviation="2"/>
<feComposite in2="hardAlpha" operator="out"/>
<feColorMatrix type="matrix" values="0 0 0 0 0 0 0 0 0 0 0 0 0 0 0 0 0 0 0.25 0"/>
<feBlend mode="normal" in2="BackgroundImageFix" result="effect1_dropShadow_307_6"/>
<feBlend mode="normal" in="SourceGraphic" in2="effect1_dropShadow_307_6" result="shape"/>
</filter>
<radialGradient id="paint0_radial_307_6" cx="0" cy="0" r="1" gradientUnits="userSpaceOnUse" gradientTransform="translate(9.24859 8.99763) scale(5.24859 5.11359)">
<stop stop-color="#FFE766"/>
<stop offset="1" stop-color="#FFE766" stop-opacity="0"/>
</radialGradient>
</defs>
</svg>
