<svg width="16" height="22" viewBox="0 0 16 22" fill="none" xmlns="http://www.w3.org/2000/svg">
<g filter="url(#filter0_f_307_7)">
<path d="M7.52977 5.24369C7.2255 4.29566 5.92129 4.26106 5.6425 5.19362L4.30833 9.6565C4.14203 10.2128 4.48111 10.8148 5.04445 10.9634L8.06688 11.7608C8.81641 11.9585 9.45952 11.2563 9.21803 10.5039L7.52977 5.24369Z" fill="#FFE766"/>
<path d="M8.47025 16.7563C8.77452 17.7043 10.0787 17.7389 10.3575 16.8064L11.6917 12.3435C11.858 11.7872 11.5189 11.1852 10.9556 11.0366L7.93313 10.2392C7.1836 10.0415 6.5405 10.7437 6.78198 11.4961L8.47025 16.7563Z" fill="#FFE766"/>
</g>
<path d="M7.52977 5.24369C7.2255 4.29566 5.92129 4.26106 5.6425 5.19362L4.30833 9.6565C4.14203 10.2128 4.48111 10.8148 5.04445 10.9634L8.06688 11.7608C8.81641 11.9585 9.45952 11.2563 9.21803 10.5039L7.52977 5.24369Z" fill="#FFE766"/>
<path d="M8.47025 16.7563C8.77452 17.7043 10.0787 17.7389 10.3575 16.8064L11.6917 12.3435C11.858 11.7872 11.5189 11.1852 10.9556 11.0366L7.93313 10.2392C7.1836 10.0415 6.5405 10.7437 6.78198 11.4961L8.47025 16.7563Z" fill="#FFE766"/>
<defs>
<filter id="filter0_f_307_7" x="0.265942" y="0.513079" width="15.4681" height="20.9738" filterUnits="userSpaceOnUse" color-interpolation-filters="sRGB">
<feFlood flood-opacity="0" result="BackgroundImageFix"/>
<feBlend mode="normal" in="SourceGraphic" in2="BackgroundImageFix" result="shape"/>
<feGaussianBlur stdDeviation="2" result="effect1_foregroundBlur_307_7"/>
</filter>
</defs>
</svg>
