<svg version="1.1" xmlns="http://www.w3.org/2000/svg" xmlns:xlink="http://www.w3.org/1999/xlink" width="62.94086" height="60.03493" viewBox="0,0,62.94086,60.03493"><g transform="translate(-208.52957,-149.98253)"><g data-paper-data="{&quot;isPaintingLayer&quot;:true}" fill="#7376c3" fill-rule="nonzero" stroke="#eaeaea" stroke-width="0" stroke-linecap="butt" stroke-linejoin="miter" stroke-miterlimit="10" stroke-dasharray="" stroke-dashoffset="0" style="mix-blend-mode: normal"><path d="M208.71002,203.67894c3.11165,-13.27025 10.17254,-43.38287 11.96957,-51.04671c0.81298,-3.46705 4.11076,-3.35697 5.90898,-0.68505c2.1732,3.22912 7.52363,11.17934 10.52402,15.63755c1.27656,1.89685 3.5485,2.62035 5.60882,1.83557c4.2788,-1.62978 11.31564,-4.31011 14.11169,-5.37515c2.262,-0.86158 6.80088,2.48883 7.26292,4.61212c1.10721,5.08842 5.17856,25.25285 7.22703,35.42539c0.72283,3.58941 -1.34948,5.9348 -3.24795,5.9348c-1.9162,0 -9.34349,0 -12.70093,0c-2.58486,0 -4.96622,-3.97951 -5.3637,-6.21241c-1.37957,-7.7496 -2.4458,-17.45457 -9.97298,-17.61835c-8.23059,-0.17906 -8.87738,9.6919 -10.75244,18.43965c-0.40905,1.90826 -3.15485,5.24782 -5.93575,5.24782c-2.8802,0 -8.82064,0.14325 -10.57338,0.14325c-2.24214,0 -4.97909,-2.44394 -4.06586,-6.33856z"/></g></g></svg>