<svg version="1.1" xmlns="http://www.w3.org/2000/svg" xmlns:xlink="http://www.w3.org/1999/xlink" width="190.53048" height="127.49163" viewBox="0,0,190.53048,127.49163"><g transform="translate(-144.73476,-132.36739)"><g data-paper-data="{&quot;isPaintingLayer&quot;:true}" fill-rule="nonzero" stroke-linejoin="miter" stroke-miterlimit="10" stroke-dasharray="" stroke-dashoffset="0" style="mix-blend-mode: normal"><g><path d="M210.9261,245.84244c0,0 3.7589,-2.25252 8.05005,-1.92103c4.08244,0.31536 7.22674,1.92103 7.22674,1.92103" data-paper-data="{&quot;index&quot;:null}" fill="none" stroke="#56b3b8" stroke-width="1.5" stroke-linecap="round"/><text transform="translate(195.60358,252.20465) scale(0.61235,0.61235)" font-size="40" xml:space="preserve" fill="#ffffff" fill-rule="nonzero" stroke="none" stroke-width="1" stroke-linecap="butt" stroke-linejoin="miter" stroke-miterlimit="10" stroke-dasharray="" stroke-dashoffset="0" font-family="Helvetica" font-weight="normal" text-anchor="start" style="mix-blend-mode: normal"><tspan x="0" dy="0">Cosmos</tspan></text><path d="M226.20289,246.08357c0,0 -3.1443,1.60567 -7.22674,1.92103c-4.29115,0.33149 -8.05005,-1.92103 -8.05005,-1.92103" fill="none" stroke="#67d1d6" stroke-width="1.5" stroke-linecap="round"/></g><g stroke="none" stroke-linecap="butt"><g><path d="M192.36738,227.63263l47.63262,-95.26524l47.63262,95.26524z" data-paper-data="{&quot;index&quot;:null}" fill="#5ea5bd" stroke-width="0"/><g><path d="M335.26524,132.36739l-47.63262,95.26524l-47.63262,-95.26524z" data-paper-data="{&quot;index&quot;:null}" fill="#7ca4b1" stroke-width="0"/><path d="M240,132.36739l-47.63262,95.26524l-47.63262,-95.26524z" data-paper-data="{&quot;index&quot;:null}" fill="#3dc2ea" stroke-width="0"/><text transform="translate(207.48272,197.62429) scale(1.34369,1.34369)" font-size="40" xml:space="preserve" fill="#52595b" fill-rule="nonzero" stroke="none" stroke-width="1" stroke-linecap="butt" stroke-linejoin="miter" stroke-miterlimit="10" stroke-dasharray="" stroke-dashoffset="0" font-family="Helvetica" font-weight="normal" text-anchor="start" style="mix-blend-mode: normal"><tspan x="0" dy="0">Tri</tspan></text></g></g><text transform="translate(254.39096,196.74295) scale(0.75,0.75)" font-size="40" xml:space="preserve" fill="#ffffff" fill-rule="nonzero" stroke="none" stroke-width="1" stroke-linecap="butt" stroke-linejoin="miter" stroke-miterlimit="10" stroke-dasharray="" stroke-dashoffset="0" font-family="Helvetica" font-weight="normal" text-anchor="start" style="mix-blend-mode: normal"><tspan x="0" dy="0">OS</tspan></text><path d="M262.33766,197.94295v-6.76241h5.72932v6.76241z" fill="#52595b" stroke-width="0"/></g></g></g></svg>
